<svg id="Layer_1" data-name="Layer 1" xmlns="http://www.w3.org/2000/svg" viewBox="0 0 816 781.65"><defs><style>.cls-1{fill:#fff;}</style></defs><title>chat</title><path class="cls-1" d="M508.8,754.28c226.34,0,401.83-135,399.17-335.33,0-177.35-179.6-319-406-319S92,241.6,92,419c0,110.46,51.87,228.19,160.22,286,0,.75-.21,1.18-.21,1.93,0,47.95-38.24,113.88-53.41,141h.1a24.25,24.25,0,0,0-1.95,9.53c0,13.38,10.35,24.3,23.27,24.3,1.95,0,4.92-.43,6-.43.31,0,.41,0,.41.11,80.06-13.7,198.25-107.78,215.78-130a266.78,266.78,0,0,0,45.21,3.32c6.46-.11,13.33-.32,21.32-.32Zm-92.26-70.43-40.18,34.89c-9.33,11.13-49.82,46.45-84.67,69.36,21.22-63.15,20.19-83.16,20.19-83.16l3-40-34.14-18.2c-86.93-46.56-126-143.1-126-227.76,0-140.85,155.81-253.56,347.2-253.56S845.23,278,845.23,419c-.51,156.27-143,270.9-334.38,270.9a351.09,351.09,0,0,1-59.25-3.43l-35.06-2.57ZM267.6,434.37a72.86,72.86,0,0,0,19.78,49.77,65.32,65.32,0,0,0,95.33,0,72.49,72.49,0,0,0,0-99.54,65.32,65.32,0,0,0-95.33,0,72.47,72.47,0,0,0-19.78,49.77Zm361.45,0a72.86,72.86,0,0,0,19.78,49.77,65.32,65.32,0,0,0,95.33,0,72.49,72.49,0,0,0,0-99.54,65.32,65.32,0,0,0-95.33,0A72.47,72.47,0,0,0,629,434.37Zm-180.21,0a72.86,72.86,0,0,0,19.78,49.77,65.32,65.32,0,0,0,95.33,0,72.49,72.49,0,0,0,0-99.54,65.32,65.32,0,0,0-95.33,0c-12.61,13-19.78,31.25-19.78,49.77Zm-185.54,0a72.86,72.86,0,0,0,19.78,49.77,65.32,65.32,0,0,0,95.33,0,72.49,72.49,0,0,0,0-99.54,65.32,65.32,0,0,0-95.33,0,72.47,72.47,0,0,0-19.78,49.77Z" transform="translate(-92 -100)"/></svg>